PathFileType	3	(X/Y/Z)	C:\Users\hrist\Documents\PhD\NeuroM Model Experiments\Complete_Controller_Data_Collection\S2_M\LG_Walk_Slower\LG_Walk_Slower01.trc																																																																																																							
DataRate	CameraRate	NumFrames	NumMarkers	Units	OrigDataRate	OrigDataStartFrame	OrigNumFrames																																																																																																			
100	100	6	35	mm	100	732	481																																																																																																			
Frame#	Time	R.ASIS			L.ASIS			V.Sacral			R.Thigh.Upper			R.Knee.Med			R.Knee.Lat			R.Thigh.Rear			R.Thigh.Front			L.Thigh.Upper			L.Knee.Med			L.Knee.Lat			L.Thigh.Rear			L.Thigh.Front			R.Shank.Upper			R.Ankle.Med			R.Ankle.Lat			R.Shank.Front			R.Shank.Rear			L.Shank.Upper			L.Ankle.Med			L.Ankle.Lat			L.Shank.Front			L.Shank.Rear			R.Toe.Tip			R.Heel			R.Toe.Med			R.Toe.Lat			R.Midfoot.Lat			R.Midfoot.Sup			L.Heel			L.Toe.Tip			L.Toe.Med			L.Toe.Lat			L.Midfoot.Lat			L.Midfoot.Sup		
		X1	Y1	Z1	X2	Y2	Z2	X3	Y3	Z3	X4	Y4	Z4	X5	Y5	Z5	X6	Y6	Z6	X7	Y7	Z7	X8	Y8	Z8	X9	Y9	Z9	X10	Y10	Z10	X11	Y11	Z11	X12	Y12	Z12	X13	Y13	Z13	X14	Y14	Z14	X15	Y15	Z15	X16	Y16	Z16	X17	Y17	Z17	X18	Y18	Z18	X19	Y19	Z19	X20	Y20	Z20	X21	Y21	Z21	X22	Y22	Z22	X23	Y23	Z23	X24	Y24	Z24	X25	Y25	Z25	X26	Y26	Z26	X27	Y27	Z27	X28	Y28	Z28	X29	Y29	Z29	X30	Y30	Z30	X31	Y31	Z31	X32	Y32	Z32	X33	Y33	Z33	X34	Y34	Z34	X35	Y35	Z35
732	7.31	-8.417777217	978.392743	-116.2230444	254.4076887	979.2833675	-114.8178752	120.5624996	1001.414205	-301.6535344	-77.5443949	750.2596314	-147.1549979	74.67978324	508.2451107	-29.21024234	-62.2721739	512.70884	-41.43460972	-65.17710933	646.6756739	-103.9916295	15.09053423	740.0445089	-12.12082101	297.7903986	796.1690916	-224.7180185	110.3829883	501.9209889	-240.6735619	238.3845573	487.663898	-258.6935879	264.9406354	643.3566487	-235.473928	221.588068	699.7429767	-105.6527558	-64.74256863	465.2519593	-26.72737895	17.57009167	124.5393122	125.6598191	-63.27563063	89.59349283	102.2165976	-12.18972852	437.3400171	53.23469204	-83.59869367	382.7809135	-8.101454161	238.7488189	449.0655833	-271.0157841	90.9990851	88.41559104	-356.6766943	175.505904	81.91084235	-399.183415	188.3085418	397.7125726	-222.1762384	240.0120269	376.9930051	-291.0021786	-37.04566051	164.8484395	284.1613916	-11.35810594	16.54780534	73.14361505	-1.668335698	128.6834584	258.2680134	-108.8102943	117.1973761	243.1593034	-96.63726554	105.5725935	203.540499	-5.243875731	133.991881	215.5909404	112.5980981	39.33635226	-457.7618871	179.8939608	36.17105985	-204.6760626	132.4873003	26.86358323	-243.0327753	236.8403019	26.1456347	-277.5018363	220.6370249	40.32944088	-312.2921722	123.698737	39.62499205	-278.1256278
733	7.32	-9.310851187	977.4789542	-109.917478	253.5698402	978.3931279	-109.8743767	118.8691611	1001.190868	-295.9320978	-78.25542407	749.1772503	-141.9174555	74.66724131	506.5791587	-26.222686	-62.2851997	510.9422841	-38.06924908	-65.61452386	645.2732841	-99.63218636	14.71156617	738.0135565	-7.414615857	296.6444477	795.8829735	-220.9491297	109.7501148	501.4543901	-238.0110758	237.7293305	487.5551218	-256.4903921	264.0611513	643.1566944	-232.4884491	221.0201052	698.6819704	-102.2482007	-64.52860498	463.146733	-23.8743093	18.52206247	121.8714424	126.0418016	-62.44708357	86.98477785	102.5012005	-11.83167775	434.9197757	55.80563665	-83.22859371	380.6596584	-5.833207445	238.2503834	449.0769925	-269.0226753	90.99000575	88.57609981	-356.3343975	175.4596609	82.32288122	-398.9870829	188.0112292	397.2887244	-220.4764181	239.4881937	377.1099692	-289.3443564	-35.8616375	161.1947296	285.0276758	-10.94680743	14.74586977	73.17056926	-0.507294941	125.1131842	259.1289826	-107.7298681	114.0222236	244.106921	-95.69627364	102.75692	204.3801349	-4.185085417	130.6678153	216.4380942	112.5804877	39.64705555	-457.7730954	179.9339953	36.10936054	-204.6376904	132.4769868	26.84723052	-243.0347858	236.8154995	26.08781683	-277.5028255	220.6624612	40.29841738	-312.2608919	123.7604908	39.73156631	-278.0693085
734	7.33	-10.20702413	976.5706344	-103.5345098	252.7091263	977.4988351	-104.8347594	117.0592533	1001.030148	-290.158507	-79.04496056	748.1012942	-136.5442697	74.55575066	504.7398474	-23.53214202	-62.44703653	509.1934286	-34.92565866	-66.12688976	643.8816389	-95.21384217	14.39431753	735.8419522	-2.70774313	295.4236431	795.6410341	-217.1265068	109.0831317	501.0150629	-235.3602924	237.0352538	487.5248824	-254.3314518	263.0806016	643.0096268	-229.5507948	220.4224569	697.6366932	-98.76116404	-64.48309287	461.1030118	-21.22459188	19.09629319	119.6747298	127.3383735	-62.02551241	84.83939704	103.7368429	-11.63975801	432.7994942	58.3185126	-83.05467636	378.6667003	-3.498387495	237.6611506	449.1151324	-267.0908679	91.01236955	88.78418831	-355.9675328	175.4222692	82.81729435	-398.8042714	187.6812863	396.9052397	-218.8264136	238.9290836	377.2981224	-287.8047353	-34.78030194	158.0599439	286.8202036	-10.90604865	13.7571605	73.85554939	0.311681962	122.0499115	260.7992657	-106.9646965	111.179624	245.8621929	-94.98678413	100.2282904	206.0624526	-3.443263945	127.8293316	218.1896105	112.511932	39.98022246	-457.7481944	179.9870817	36.04307324	-204.5948161	132.4386736	26.81241234	-243.0130238	236.8300017	26.04960211	-277.4901177	220.6934328	40.25335854	-312.2297	123.8596062	39.8627818	-278.0132848
735	7.34	-11.08682877	975.6939248	-97.11777196	251.8346624	976.6060086	-99.71719891	115.1543534	1000.942424	-284.3472097	-79.95308671	747.0451802	-131.1018459	74.19756819	502.7471617	-21.2794947	-62.847004	507.5262327	-32.09239599	-66.72362628	642.4664043	-90.85357985	14.14068383	733.5630295	1.979495345	294.1588293	795.4221258	-213.2272707	108.3995591	500.5856866	-232.7181093	236.2970219	487.5835372	-252.2042894	262.0448003	642.9016316	-226.6268222	219.7890308	696.5914274	-95.22232565	-64.77932953	459.4783506	-18.4504496	19.30234991	117.9921964	129.7103635	-61.91271276	83.35488394	106.0803799	-11.76453057	431.1991446	60.98883352	-83.25463414	377.0101381	-0.815986393	236.9455263	449.1879584	-265.220197	91.07153808	89.04506944	-355.5910901	175.397312	83.40770603	-398.6346512	187.3135776	396.5806661	-217.1171921	238.3848838	377.5514171	-286.3085944	-33.96636727	154.9261318	289.8109476	-10.9403864	13.56306458	75.02502183	0.730308735	119.0991716	263.3881254	-106.570588	108.2133202	248.3914018	-94.54804826	97.66910883	208.5455644	-3.038414199	125.1852369	220.9447505	112.4405985	40.38348946	-457.6525695	180.0423673	35.96833062	-204.5477979	132.4668291	26.84105469	-242.8689323	236.8724752	26.01961158	-277.4670993	220.7328013	40.21234611	-312.1748822	124.0402926	40.02294625	-277.9937413
736	7.35	-11.95321408	974.8949317	-90.70853011	250.9295152	975.7466238	-94.53000242	113.2128486	1000.926065	-278.4837684	-80.98250151	746.0817176	-125.6499875	73.46208085	500.7890078	-19.3832002	-63.53512751	506.0973424	-29.27192016	-67.41334724	641.1283735	-86.54992149	13.93120665	731.2615532	6.677801835	292.855195	795.2412906	-209.2526919	107.6922478	500.1804871	-230.0682262	235.5153456	487.729338	-250.0823026	260.9972698	642.8519694	-223.638013	219.1090064	695.5613338	-91.63200849	-65.5994779	458.4707926	-15.17389468	19.2689981	116.6510584	132.6248791	-62.00494266	82.38353526	108.9577072	-12.17197092	430.0890907	64.06958299	-83.87436051	375.8324335	2.437725755	236.1649514	449.3500437	-263.3677087	91.17455653	89.3662603	-355.2153016	175.3782355	84.06105762	-398.468446	186.9263389	396.3437641	-215.3434969	237.8532439	377.8958965	-284.7879306	-33.57096706	151.1909845	293.556201	-10.92248635	13.87483871	76.25279381	0.862728606	115.6879943	266.5033853	-106.5173592	104.8375018	251.2643295	-94.38733979	94.9677726	211.353614	-2.887188751	122.3396111	224.3273666	112.4174076	40.89142296	-457.4837445	180.0967313	35.88937164	-204.5006308	132.588464	26.96282401	-242.6497343	236.9215457	25.9766481	-277.449806	220.7833364	40.16993005	-312.1085217	124.331872	40.21947687	-278.0506847
737	7.36	-12.84314727	974.2401956	-84.34061428	249.9575916	974.9445246	-89.279553	111.2879123	1000.995515	-272.5721471	-82.10825933	745.2804782	-120.2280214	72.35563995	499.2201615	-17.40671976	-64.47923658	505.1194399	-25.86170139	-68.22799412	640.0265419	-82.14706432	13.7121462	729.0945462	11.45627303	291.4807772	795.13904	-205.2483608	106.9436073	499.8284677	-227.3758783	234.7066125	487.9444181	-247.9269588	259.9424631	642.8712409	-220.5510846	218.367716	694.5776521	-87.98105773	-66.8739801	458.036338	-11.23224263	19.11729496	115.5055258	135.5242897	-62.28153866	81.61758965	111.725551	-12.63732858	429.3073847	67.67695716	-84.77415057	375.1549306	6.333103384	235.3881333	449.6245541	-261.4803503	91.33908116	89.76204125	-354.836575	175.3713439	84.74370207	-398.2937561	186.5211836	396.1824302	-213.5999732	237.3154754	378.3442025	-283.2282413	-33.54797321	146.7358587	297.4567427	-10.87969802	14.40648265	77.29699866	0.841105523	111.6072284	269.6905586	-106.705103	101.1177379	254.0963556	-94.44861115	92.1633452	214.0625449	-2.906276165	119.1634091	227.9041788	112.4594564	41.51034336	-457.276102	180.1563952	35.81451803	-204.4607248	132.7479898	27.13743266	-242.4952737	236.9750526	25.90710098	-277.4496031	220.8525402	40.10896918	-312.0545093	124.6560988	40.44651101	-278.1357116
